<svg width="16" height="16" viewBox="0 0 16 16" fill="none" xmlns="http://www.w3.org/2000/svg">
<g clip-path="url(#clip0_238_223)">
<path fill-rule="evenodd" clip-rule="evenodd" d="M2.1875 0C0.979377 0 0 0.979377 0 2.1875V13.8125C0 15.0206 0.979377 16 2.1875 16H13.8125C15.0206 16 16 15.0206 16 13.8125V2.1875C16 0.979377 15.0206 0 13.8125 0H2.1875ZM8.8276 1.65516L2.48277 2.48275L1.93105 12.9655L5.86208 15.2823V16H10.8513V15.1659L12.4138 14.069L14.6207 12.4138L14.3448 2.20688L8.8276 1.65516Z" fill="white"/>
<path d="M8.00003 -1.10345C3.27734 -1.10345 -0.551697 2.78554 -0.551697 7.58217C-0.551697 11.6521 2.1421 15.0576 5.8621 16C5.8621 15.8599 5.8621 15.7467 5.8621 15.578V14.0935C5.51504 14.0935 4.93352 14.0935 4.78743 14.0935C4.20235 14.0935 3.68212 13.838 3.42984 13.3632C3.14977 12.8355 3.10131 12.0285 2.4072 11.5349C2.20125 11.3706 2.35803 11.1831 2.59534 11.2084C3.03361 11.3344 3.39706 11.6398 3.73913 12.0929C4.07977 12.5467 4.24012 12.6495 4.87651 12.6495C5.18508 12.6495 5.64688 12.6314 6.08159 12.5619C6.31534 11.959 6.71941 11.4038 7.21327 11.1418C4.36554 10.8443 3.00653 9.40543 3.00653 7.45189C3.00653 6.61083 3.35929 5.79728 3.95862 5.11184C3.76194 4.43146 3.51465 3.04393 4.03417 2.51556C5.3155 2.51556 6.09014 3.35951 6.27614 3.58751C6.91467 3.3653 7.61591 3.23936 8.35279 3.23936C9.09108 3.23936 9.79518 3.3653 10.4351 3.58896C10.619 3.3624 11.3943 2.51556 12.6785 2.51556C13.2002 3.04466 12.95 4.43798 12.7512 5.1169C13.347 5.8009 13.6976 6.61228 13.6976 7.45189C13.6976 9.40398 12.3407 10.8422 9.49729 11.1411C10.2798 11.5558 10.8506 12.7212 10.8506 13.5991V15.578C10.8506 15.6533 10.8506 15.7888 10.8506 16C14.1829 14.8137 16.5518 11.372 16.5518 7.58217C16.5518 2.78554 12.7227 -1.10345 8.00003 -1.10345Z" fill="white"/>
</g>
<defs>
<clipPath id="clip0_238_223">
<rect width="16" height="16" fill="white"/>
</clipPath>
</defs>
</svg>
