<svg width="16" height="16" viewBox="0 0 16 16" fill="none" xmlns="http://www.w3.org/2000/svg">
<path fill-rule="evenodd" clip-rule="evenodd" d="M2.19001 0C0.980503 0 0 0.980502 0 2.19001V13.81C0 15.0195 0.980502 16 2.19001 16H13.81C15.0195 16 16 15.0195 16 13.81V2.19001C16 0.980503 15.0195 0 13.81 0H2.19001ZM13.4688 13.4375C13.4688 7.39685 8.57195 2.49997 2.53134 2.49996V4.62493C7.39834 4.62494 11.3438 8.57043 11.3438 13.4374V13.4375H13.4688ZM9.75009 13.4375V13.4374C9.75009 9.45062 6.51815 6.21868 2.53134 6.21868V8.31246C5.36177 8.31249 7.65627 10.607 7.65627 13.4375L9.75009 13.4375ZM5.43755 12.0156C5.43755 12.8182 4.78696 13.4688 3.98443 13.4688C3.18189 13.4688 2.5313 12.8182 2.5313 12.0156C2.5313 11.2131 3.18189 10.5625 3.98443 10.5625C4.78696 10.5625 5.43755 11.2131 5.43755 12.0156Z" fill="white"/>
</svg>
