<svg width="255" height="22" viewBox="0 0 255 22" fill="none" xmlns="http://www.w3.org/2000/svg">
<path d="M46.0419 3V19H45.0888L34.8857 4.77344H34.7919V19H33.8154V3H34.7763L44.9794 17.2422H45.0732V3H46.0419ZM55.0966 19H50.6591V3H55.4404C56.9404 3 58.2242 3.31771 59.2919 3.95312C60.3597 4.58854 61.1774 5.5 61.7451 6.6875C62.318 7.86979 62.6018 9.28906 62.5966 10.9453C62.5914 12.638 62.2946 14.0859 61.706 15.2891C61.1175 16.487 60.2659 17.4062 59.1513 18.0469C58.0367 18.6823 56.6852 19 55.0966 19ZM51.6357 18.0937H55.0576C56.4847 18.0937 57.6878 17.8099 58.6669 17.2422C59.6461 16.6693 60.3857 15.849 60.8857 14.7812C61.3909 13.7135 61.6409 12.4349 61.6357 10.9453C61.6357 9.47656 61.3935 8.21875 60.9091 7.17187C60.4248 6.11979 59.719 5.3125 58.7919 4.75C57.8701 4.1875 56.7399 3.90625 55.4013 3.90625H51.6357V18.0937ZM66.4072 19V3H71.3369C72.3473 3 73.2171 3.19792 73.9462 3.59375C74.6754 3.98958 75.2353 4.53906 75.6259 5.24219C76.0166 5.9401 76.2119 6.7526 76.2119 7.67969C76.2119 8.59635 76.0166 9.40365 75.6259 10.1016C75.2353 10.7943 74.6754 11.3359 73.9462 11.7266C73.2223 12.1172 72.3551 12.3125 71.3447 12.3125H66.9306V11.3984H71.3212C72.1442 11.3984 72.8473 11.2448 73.4306 10.9375C74.014 10.6302 74.4619 10.2005 74.7744 9.64844C75.0869 9.09115 75.2431 8.4349 75.2431 7.67969C75.2431 6.91927 75.0869 6.25781 74.7744 5.69531C74.4619 5.1276 74.0113 4.6875 73.4228 4.375C72.8395 4.0625 72.1363 3.90625 71.3134 3.90625H67.3837V19H66.4072ZM72.9775 11.75L76.915 19H75.79L71.8759 11.75H72.9775ZM80.1142 19V3H89.0205V3.90625H81.0908V10.5391H88.5439V11.4453H81.0908V18.0937H89.208V19H80.1142ZM92.4521 19H91.4209L97.1943 3H98.3193L104.093 19H103.061L97.7959 4.25781H97.7177L92.4521 19ZM93.913 12.9766H101.601V13.8828H93.913V12.9766ZM115.702 7C115.619 6.00521 115.213 5.20052 114.483 4.58594C113.759 3.97135 112.822 3.66406 111.671 3.66406C110.895 3.66406 110.205 3.80729 109.601 4.09375C108.996 4.38021 108.522 4.77083 108.179 5.26562C107.835 5.76042 107.663 6.32812 107.663 6.96875C107.663 7.38021 107.741 7.7526 107.897 8.08594C108.059 8.41406 108.285 8.70833 108.577 8.96875C108.869 9.22396 109.215 9.44792 109.616 9.64062C110.017 9.83333 110.46 10.0026 110.944 10.1484L112.694 10.6641C113.293 10.8464 113.845 11.0573 114.351 11.2969C114.861 11.5365 115.304 11.8229 115.679 12.1562C116.059 12.4844 116.353 12.8698 116.561 13.3125C116.775 13.7552 116.882 14.2656 116.882 14.8438C116.882 15.6875 116.663 16.4427 116.226 17.1094C115.793 17.776 115.176 18.3021 114.374 18.6875C113.577 19.0677 112.637 19.2578 111.554 19.2578C110.522 19.2578 109.624 19.0833 108.858 18.7344C108.098 18.3854 107.496 17.901 107.054 17.2812C106.611 16.6562 106.361 15.9375 106.304 15.125H107.304C107.356 15.7865 107.567 16.3594 107.936 16.8437C108.311 17.3229 108.809 17.6927 109.429 17.9531C110.048 18.2135 110.757 18.3437 111.554 18.3437C112.413 18.3437 113.171 18.1979 113.827 17.9062C114.483 17.6094 114.996 17.1979 115.366 16.6719C115.736 16.1458 115.921 15.5339 115.921 14.8359C115.921 14.2734 115.788 13.7917 115.522 13.3906C115.257 12.9896 114.864 12.6432 114.343 12.3516C113.827 12.0599 113.186 11.7995 112.421 11.5703L110.554 11.0078C109.304 10.6276 108.348 10.1094 107.686 9.45312C107.03 8.79687 106.702 7.97917 106.702 7C106.702 6.17708 106.921 5.44792 107.358 4.8125C107.796 4.17187 108.39 3.66927 109.14 3.30469C109.895 2.9401 110.746 2.75781 111.694 2.75781C112.647 2.75781 113.489 2.94271 114.218 3.3125C114.947 3.67708 115.525 4.17969 115.952 4.82031C116.379 5.45573 116.616 6.18229 116.663 7H115.702Z" fill="white"/>
<path d="M22.108 3L25.1093 3L30.898 18.9999H27.898L22.108 3Z" fill="white"/>
<path d="M24.7193 3L21.718 3L15.9293 18.9999H18.9293L24.7193 3Z" fill="white"/>
<path d="M19.6479 3L16.6466 3L10.8579 18.9999H13.8579L19.6479 3Z" fill="white" fill-opacity="0.3"/>
<path d="M14.395 3L11.3937 3L5.60499 18.9999H8.605L14.395 3Z" fill="white" fill-opacity="0.15"/>
<path d="M9.00072 3L5.9994 3L0.210708 18.9999H3.21071L9.00072 3Z" fill="white" fill-opacity="0.08"/>
<path d="M136.108 3L139.109 3L144.898 18.9999H141.898L136.108 3Z" fill="white"/>
<path d="M138.719 3L135.718 3L129.929 18.9999H132.929L138.719 3Z" fill="white"/>
<path d="M133.648 3L130.647 3L124.858 18.9999H127.858L133.648 3Z" fill="white" fill-opacity="0.3"/>
<path d="M128.395 3L125.394 3L119.605 18.9999H122.605L128.395 3Z" fill="white" fill-opacity="0.15"/>
<path d="M123.001 3L119.999 3L114.211 18.9999H117.211L123.001 3Z" fill="white" fill-opacity="0.08"/>
<path d="M147.313 19V3H152.242C153.253 3 154.122 3.19792 154.852 3.59375C155.581 3.98958 156.141 4.53906 156.531 5.24219C156.922 5.9401 157.117 6.7526 157.117 7.67969C157.117 8.59635 156.922 9.40365 156.531 10.1016C156.141 10.7943 155.581 11.3359 154.852 11.7266C154.128 12.1172 153.26 12.3125 152.25 12.3125H147.836V11.3984H152.227C153.049 11.3984 153.753 11.2448 154.336 10.9375C154.919 10.6302 155.367 10.2005 155.68 9.64844C155.992 9.09115 156.148 8.4349 156.148 7.67969C156.148 6.91927 155.992 6.25781 155.68 5.69531C155.367 5.1276 154.917 4.6875 154.328 4.375C153.745 4.0625 153.042 3.90625 152.219 3.90625H148.289V19H147.313ZM153.883 11.75L157.82 19H156.695L152.781 11.75H153.883ZM160.123 3L165.373 17.7422H165.482L170.732 3H171.764L165.99 19H164.865L159.092 3H160.123ZM175.725 3V19H174.748V3H175.725ZM184.793 19H180.355V3H185.137C186.637 3 187.921 3.31771 188.988 3.95312C190.056 4.58854 190.874 5.5 191.441 6.6875C192.014 7.86979 192.298 9.28906 192.293 10.9453C192.288 12.638 191.991 14.0859 191.402 15.2891C190.814 16.487 189.962 17.4062 188.848 18.0469C187.733 18.6823 186.382 19 184.793 19ZM181.332 18.0937H184.754C186.181 18.0937 187.384 17.8099 188.363 17.2422C189.342 16.6693 190.082 15.849 190.582 14.7812C191.087 13.7135 191.337 12.4349 191.332 10.9453C191.332 9.47656 191.09 8.21875 190.605 7.17187C190.121 6.11979 189.415 5.3125 188.488 4.75C187.566 4.1875 186.436 3.90625 185.098 3.90625H181.332V18.0937ZM204.729 7C204.645 6.00521 204.239 5.20052 203.51 4.58594C202.786 3.97135 201.848 3.66406 200.697 3.66406C199.921 3.66406 199.231 3.80729 198.627 4.09375C198.023 4.38021 197.549 4.77083 197.205 5.26562C196.861 5.76042 196.689 6.32812 196.689 6.96875C196.689 7.38021 196.768 7.7526 196.924 8.08594C197.085 8.41406 197.312 8.70833 197.604 8.96875C197.895 9.22396 198.242 9.44792 198.643 9.64062C199.044 9.83333 199.486 10.0026 199.971 10.1484L201.721 10.6641C202.32 10.8464 202.872 11.0573 203.377 11.2969C203.887 11.5365 204.33 11.8229 204.705 12.1562C205.085 12.4844 205.38 12.8698 205.588 13.3125C205.801 13.7552 205.908 14.2656 205.908 14.8438C205.908 15.6875 205.689 16.4427 205.252 17.1094C204.82 17.776 204.202 18.3021 203.4 18.6875C202.604 19.0677 201.663 19.2578 200.58 19.2578C199.549 19.2578 198.65 19.0833 197.885 18.7344C197.124 18.3854 196.523 17.901 196.08 17.2812C195.637 16.6562 195.387 15.9375 195.33 15.125H196.33C196.382 15.7865 196.593 16.3594 196.963 16.8437C197.338 17.3229 197.835 17.6927 198.455 17.9531C199.075 18.2135 199.783 18.3437 200.58 18.3437C201.439 18.3437 202.197 18.1979 202.854 17.9062C203.51 17.6094 204.023 17.1979 204.393 16.6719C204.762 16.1458 204.947 15.5339 204.947 14.8359C204.947 14.2734 204.814 13.7917 204.549 13.3906C204.283 12.9896 203.89 12.6432 203.369 12.3516C202.854 12.0599 202.213 11.7995 201.447 11.5703L199.58 11.0078C198.33 10.6276 197.374 10.1094 196.713 9.45312C196.057 8.79687 195.729 7.97917 195.729 7C195.729 6.17708 195.947 5.44792 196.385 4.8125C196.822 4.17187 197.416 3.66927 198.166 3.30469C198.921 2.9401 199.773 2.75781 200.721 2.75781C201.674 2.75781 202.515 2.94271 203.244 3.3125C203.973 3.67708 204.551 4.17969 204.979 4.82031C205.406 5.45573 205.643 6.18229 205.689 7H204.729ZM218.393 7C218.309 6.00521 217.903 5.20052 217.174 4.58594C216.45 3.97135 215.512 3.66406 214.361 3.66406C213.585 3.66406 212.895 3.80729 212.291 4.09375C211.687 4.38021 211.213 4.77083 210.869 5.26562C210.525 5.76042 210.354 6.32812 210.354 6.96875C210.354 7.38021 210.432 7.7526 210.588 8.08594C210.749 8.41406 210.976 8.70833 211.268 8.96875C211.559 9.22396 211.906 9.44792 212.307 9.64062C212.708 9.83333 213.15 10.0026 213.635 10.1484L215.385 10.6641C215.984 10.8464 216.536 11.0573 217.041 11.2969C217.551 11.5365 217.994 11.8229 218.369 12.1562C218.749 12.4844 219.044 12.8698 219.252 13.3125C219.465 13.7552 219.572 14.2656 219.572 14.8438C219.572 15.6875 219.354 16.4427 218.916 17.1094C218.484 17.776 217.867 18.3021 217.064 18.6875C216.268 19.0677 215.327 19.2578 214.244 19.2578C213.213 19.2578 212.314 19.0833 211.549 18.7344C210.788 18.3854 210.187 17.901 209.744 17.2812C209.301 16.6562 209.051 15.9375 208.994 15.125H209.994C210.046 15.7865 210.257 16.3594 210.627 16.8437C211.002 17.3229 211.499 17.6927 212.119 17.9531C212.739 18.2135 213.447 18.3437 214.244 18.3437C215.104 18.3437 215.861 18.1979 216.518 17.9062C217.174 17.6094 217.687 17.1979 218.057 16.6719C218.426 16.1458 218.611 15.5339 218.611 14.8359C218.611 14.2734 218.479 13.7917 218.213 13.3906C217.947 12.9896 217.554 12.6432 217.033 12.3516C216.518 12.0599 215.877 11.7995 215.111 11.5703L213.244 11.0078C211.994 10.6276 211.038 10.1094 210.377 9.45312C209.721 8.79687 209.393 7.97917 209.393 7C209.393 6.17708 209.611 5.44792 210.049 4.8125C210.486 4.17187 211.08 3.66927 211.83 3.30469C212.585 2.9401 213.437 2.75781 214.385 2.75781C215.338 2.75781 216.179 2.94271 216.908 3.3125C217.637 3.67708 218.215 4.17969 218.643 4.82031C219.07 5.45573 219.307 6.18229 219.354 7H218.393ZM236.158 11C236.158 12.651 235.872 14.0937 235.299 15.3281C234.726 16.5573 233.929 17.513 232.908 18.1953C231.893 18.8776 230.721 19.2187 229.393 19.2187C228.059 19.2187 226.882 18.8776 225.861 18.1953C224.846 17.5078 224.051 16.5495 223.479 15.3203C222.906 14.0859 222.619 12.6458 222.619 11C222.619 9.34896 222.906 7.90885 223.479 6.67969C224.057 5.45052 224.854 4.49479 225.869 3.8125C226.885 3.125 228.059 2.78125 229.393 2.78125C230.721 2.78125 231.893 3.1224 232.908 3.80469C233.929 4.48698 234.726 5.44531 235.299 6.67969C235.872 7.90885 236.158 9.34896 236.158 11ZM235.205 11C235.205 9.51562 234.955 8.22917 234.455 7.14062C233.96 6.05208 233.275 5.21094 232.4 4.61719C231.525 4.01823 230.523 3.71875 229.393 3.71875C228.262 3.71875 227.26 4.01562 226.385 4.60938C225.51 5.19792 224.822 6.03906 224.322 7.13281C223.827 8.22135 223.58 9.51042 223.58 11C223.58 12.474 223.825 13.7578 224.314 14.8516C224.809 15.9401 225.494 16.7839 226.369 17.3828C227.244 17.9818 228.252 18.2812 229.393 18.2812C230.523 18.2812 231.525 17.9844 232.4 17.3906C233.275 16.7917 233.96 15.9479 234.455 14.8594C234.955 13.7708 235.205 12.4844 235.205 11ZM252.201 3V19H251.248L241.045 4.77344H240.951V19H239.975V3H240.936L251.139 17.2422H251.232V3H252.201Z" fill="white"/>
</svg>
