<svg width="302" height="367" viewBox="0 0 302 367" fill="none" xmlns="http://www.w3.org/2000/svg">
<path fill-rule="evenodd" clip-rule="evenodd" d="M140.123 125.75C136.479 104.375 129.848 79.6073 115.129 59C92.9785 27.9899 54.1286 0 40.6286 0C27.2952 8.16667 5.83287 38.5 2.12857 65C-4.37143 111.5 5.12857 141 15.6286 156C33.0195 180.844 53.5814 195.018 72.5312 206.998C80.4218 170.177 106.094 139.952 140.123 125.75ZM273.509 160.394C262.793 146.828 249.059 135.756 233.32 128.192C234.562 125.146 235.793 121.883 237.064 118.515C241.196 107.563 245.753 95.4855 252.51 86.0565C263.579 70.6099 285.466 55.4604 290.039 54.8789C301.304 67.9307 302.297 90.6593 300.18 113.562C297.303 144.683 286.855 151.38 278.881 156.49C276.882 157.771 275.039 158.953 273.509 160.394ZM222.794 303.261C248.515 289.423 266 262.254 266 231C266 228.17 265.857 225.373 265.577 222.616C261.377 181.267 226.457 149 184 149C183.107 149 182.217 149.014 181.331 149.043C168.04 149.468 155.547 153.056 144.58 159.079C122.74 171.075 106.955 192.731 102.979 218.294C102.334 222.435 102 226.678 102 231C102 276.287 138.713 313 184 313C193.359 313 202.352 311.432 210.73 308.545C214.915 307.102 218.946 305.331 222.794 303.261ZM212.612 341.38C231.489 336.501 248.469 326.907 262.222 313.93L262.026 314.753C262.026 314.753 256.433 333.726 242.872 346.16C229.312 358.594 219.945 357.548 219.945 357.548C217.177 354.52 214.34 347.601 212.612 341.38ZM75.4781 266.014C82.3232 287.246 95.2261 305.757 112.15 319.512C108.938 324.746 105.753 329.521 103.312 332.323C95.8959 340.835 88.4796 341.608 67.0112 332.323C49.8364 324.894 27.197 306.013 19 287.828C19.1657 287.664 19.3458 287.482 19.5418 287.285L19.543 287.284C22.578 284.227 29.412 277.345 45.5428 270.804C53.8951 267.417 65.2054 266.158 75.4781 266.014Z" fill="white"/>
</svg>
